<?xml version="1.0" encoding="UTF-8" standalone="no"?>
<!DOCTYPE svg PUBLIC "-//W3C//DTD SVG 1.1//EN" "http://www.w3.org/Graphics/SVG/1.1/DTD/svg11.dtd">
<svg width="100%" height="100%" viewBox="0 0 600 600" version="1.1" xmlns="http://www.w3.org/2000/svg" xmlns:xlink="http://www.w3.org/1999/xlink" xml:space="preserve" xmlns:serif="http://www.serif.com/" style="fill-rule:evenodd;clip-rule:evenodd;stroke-linejoin:round;stroke-miterlimit:2;">
    <g transform="matrix(3.02407,0,0,3.02407,-3254.96,-2337.6)">
        <path d="M1203.34,923.101L1114.55,923.101C1097.7,923.101 1084.02,909.42 1084.02,892.569L1084.02,831.504C1084.02,814.652 1097.7,800.971 1114.55,800.971L1236.55,800.971C1253.41,800.971 1267.09,814.652 1267.09,831.504L1267.09,892.569C1267.09,909.42 1253.41,923.101 1236.55,923.101L1226.9,923.101L1203.14,943.427L1203.34,923.101Z" style="fill:rgb(0,155,255);"/>
    </g>
    <g transform="matrix(1.53214,0,0,1.53214,-782.381,-491.619)">
        <g transform="matrix(144,0,0,144,591.754,539.075)">
            <path d="M0.193,-0L0.043,-0L0.043,-0.665L0.193,-0.665L0.193,-0.459C0.218,-0.473 0.243,-0.484 0.27,-0.492C0.296,-0.5 0.321,-0.504 0.345,-0.504C0.401,-0.504 0.443,-0.491 0.471,-0.464C0.498,-0.437 0.512,-0.397 0.512,-0.342L0.512,-0L0.362,-0L0.362,-0.322C0.362,-0.339 0.357,-0.351 0.347,-0.358C0.337,-0.365 0.321,-0.369 0.299,-0.369C0.282,-0.369 0.265,-0.368 0.246,-0.365C0.227,-0.362 0.21,-0.358 0.193,-0.353L0.193,-0Z" style="fill:white;fill-rule:nonzero;"/>
        </g>
        <g transform="matrix(144,0,0,144,671.386,539.075)">
            <path d="M0.452,-0.146L0.452,-0.027C0.436,-0.017 0.409,-0.008 0.371,-0.001C0.333,0.006 0.293,0.01 0.251,0.01C0.171,0.01 0.113,-0.01 0.078,-0.051C0.043,-0.091 0.025,-0.156 0.025,-0.247C0.025,-0.336 0.044,-0.401 0.081,-0.442C0.118,-0.483 0.177,-0.504 0.258,-0.504C0.337,-0.504 0.392,-0.489 0.425,-0.458C0.457,-0.427 0.473,-0.372 0.473,-0.293C0.473,-0.272 0.473,-0.255 0.472,-0.242C0.471,-0.229 0.47,-0.215 0.468,-0.198L0.176,-0.198C0.177,-0.171 0.184,-0.152 0.198,-0.141C0.212,-0.13 0.238,-0.125 0.275,-0.125C0.307,-0.125 0.34,-0.127 0.373,-0.132C0.406,-0.136 0.433,-0.141 0.452,-0.146ZM0.258,-0.376C0.226,-0.376 0.204,-0.371 0.193,-0.36C0.182,-0.349 0.176,-0.327 0.176,-0.295L0.337,-0.295L0.337,-0.317C0.336,-0.34 0.331,-0.356 0.321,-0.364C0.31,-0.372 0.289,-0.376 0.258,-0.376Z" style="fill:white;fill-rule:nonzero;"/>
        </g>
        <g transform="matrix(144,0,0,144,741.37,539.075)">
            <path d="M0.11,0.034C0.133,0.034 0.151,0.031 0.162,0.025C0.172,0.018 0.18,0.007 0.184,-0.01L-0.002,-0.494L0.165,-0.494L0.26,-0.156L0.35,-0.494L0.511,-0.494L0.335,0.01C0.316,0.064 0.292,0.103 0.262,0.127C0.231,0.15 0.191,0.162 0.141,0.162C0.127,0.162 0.113,0.161 0.098,0.16C0.083,0.159 0.069,0.157 0.057,0.154L0.057,0.032C0.062,0.033 0.068,0.033 0.075,0.034C0.082,0.034 0.093,0.034 0.11,0.034Z" style="fill:white;fill-rule:nonzero;"/>
        </g>
    </g>
</svg>
